<svg width="16" height="16" viewBox="0 0 16 16" fill="none" xmlns="http://www.w3.org/2000/svg">
<path d="M13.2635 10.2647C13.1931 10.3349 13.0978 10.3743 12.9985 10.3743C12.8991 10.3743 12.8038 10.3349 12.7335 10.2647L7.99846 5.53029L3.26346 10.2647C3.19237 10.3309 3.09835 10.367 3.0012 10.3653C2.90405 10.3635 2.81135 10.3242 2.74265 10.2555C2.67394 10.1868 2.63459 10.0941 2.63287 9.99693C2.63116 9.89978 2.66722 9.80576 2.73346 9.73467L7.73346 4.73467C7.80377 4.66444 7.89908 4.625 7.99846 4.625C8.09783 4.625 8.19315 4.66444 8.26346 4.73467L13.2635 9.73467C13.3337 9.80498 13.3731 9.90029 13.3731 9.99967C13.3731 10.099 13.3337 10.1944 13.2635 10.2647Z" fill="#262626"/>
</svg>
