<svg width="212" height="48" viewBox="0 0 212 48" fill="none" xmlns="http://www.w3.org/2000/svg">
<path d="M0 25V0H7.45312V25H0ZM11.1205 24.9822V0H14.9062V24.9822H11.1205ZM22.3594 24.9822V0H26.0267V24.9822H22.3594ZM40.933 24.9822V0H44.6003V24.9822H40.933ZM55.8392 24.9822V0H63.1739V24.9822H55.8392ZM74.4128 24.9822V0H78.0802V24.9822H74.4128ZM81.866 24.9822V0H85.5333V24.9822H81.866ZM89.3191 24.9822V0H92.9864V24.9822H89.3191ZM104.107 24.9822V0H111.56V24.9822H104.107ZM122.681 24.9822V0H130.134V24.9822H122.681ZM137.587 24.9822V0H145.04V24.9822H137.587ZM152.493 24.9822V0H159.947V24.9822H152.493ZM163.614 24.9822V0H171.067V24.9822H163.614ZM182.306 24.9822V0H193.426V24.9822H182.306ZM197.094 24.9822V0H200.88V24.9822H197.094ZM204.547 25V0H212V25H204.547Z" fill="black"/>
<path d="M5.0751 36.2727V45H3.75408V37.5938H3.70294L1.61487 38.9574V37.696L3.79243 36.2727H5.0751ZM18.4759 45V44.0455L21.429 40.9858C21.7444 40.6534 22.0043 40.3622 22.2088 40.1122C22.4162 39.8594 22.5711 39.6193 22.6733 39.392C22.7756 39.1648 22.8267 38.9233 22.8267 38.6676C22.8267 38.3778 22.7586 38.1278 22.6222 37.9176C22.4858 37.7045 22.2998 37.5412 22.064 37.4276C21.8282 37.3111 21.5625 37.2528 21.2671 37.2528C20.9546 37.2528 20.6819 37.3168 20.4489 37.4446C20.216 37.5724 20.037 37.7528 19.912 37.9858C19.787 38.2187 19.7245 38.4915 19.7245 38.804H18.4674C18.4674 38.2727 18.5895 37.8082 18.8338 37.4105C19.0782 37.0128 19.4134 36.7045 19.8395 36.4858C20.2657 36.2642 20.75 36.1534 21.2927 36.1534C21.841 36.1534 22.3239 36.2628 22.7415 36.4815C23.162 36.6974 23.4901 36.9929 23.7259 37.3679C23.9617 37.7401 24.0796 38.1605 24.0796 38.6293C24.0796 38.9531 24.0185 39.2699 23.8963 39.5795C23.777 39.8892 23.5682 40.2344 23.2699 40.6151C22.9716 40.9929 22.5569 41.4517 22.0256 41.9915L20.2912 43.8068V43.8707H24.2202V45H18.4759ZM39.9136 45.1193C39.3284 45.1193 38.8057 45.0185 38.3454 44.8168C37.8881 44.6151 37.5258 44.3352 37.2588 43.9773C36.9946 43.6165 36.8525 43.1989 36.8327 42.7244H38.1707C38.1878 42.983 38.2744 43.2074 38.4307 43.3977C38.5898 43.5852 38.7971 43.7301 39.0528 43.8324C39.3085 43.9347 39.5926 43.9858 39.9051 43.9858C40.2489 43.9858 40.5528 43.9261 40.817 43.8068C41.0841 43.6875 41.2929 43.5213 41.4435 43.3082C41.594 43.0923 41.6693 42.8438 41.6693 42.5625C41.6693 42.2699 41.594 42.0128 41.4435 41.7912C41.2957 41.5668 41.0784 41.3906 40.7915 41.2628C40.5074 41.1349 40.1636 41.071 39.7602 41.071H39.023V39.9972H39.7602C40.0841 39.9972 40.3682 39.9389 40.6125 39.8224C40.8596 39.706 41.0528 39.544 41.192 39.3366C41.3312 39.1264 41.4008 38.8807 41.4008 38.5994C41.4008 38.3295 41.3398 38.0952 41.2176 37.8963C41.0983 37.6946 40.9278 37.5369 40.7062 37.4233C40.4875 37.3097 40.229 37.2528 39.9307 37.2528C39.6466 37.2528 39.381 37.3054 39.1338 37.4105C38.8895 37.5128 38.6906 37.6605 38.5372 37.8537C38.3838 38.044 38.3014 38.2727 38.29 38.5398H37.0159C37.0301 38.0682 37.1693 37.6534 37.4335 37.2955C37.7006 36.9375 38.0528 36.6577 38.4903 36.456C38.9278 36.2543 39.4136 36.1534 39.9477 36.1534C40.5074 36.1534 40.9903 36.2628 41.3966 36.4815C41.8057 36.6974 42.121 36.9858 42.3426 37.3466C42.567 37.7074 42.6778 38.1023 42.675 38.5312C42.6778 39.0199 42.5415 39.4347 42.2659 39.7756C41.9932 40.1165 41.6295 40.3452 41.175 40.4616V40.5298C41.7545 40.6179 42.2034 40.848 42.5216 41.2202C42.8426 41.5923 43.0017 42.054 42.9989 42.6051C43.0017 43.0852 42.8682 43.5156 42.5983 43.8963C42.3312 44.277 41.9662 44.5767 41.5031 44.7955C41.04 45.0114 40.5102 45.1193 39.9136 45.1193ZM55.4664 43.2955V42.2301L59.2377 36.2727H60.0772V37.8409H59.5445L56.8471 42.1108V42.179H62.0161V43.2955H55.4664ZM59.6042 45V42.9716L59.6127 42.4858V36.2727H60.8613V45H59.6042ZM77.4219 45.1193C76.8878 45.1193 76.4077 45.017 75.9816 44.8125C75.5583 44.6051 75.2202 44.321 74.9673 43.9602C74.7145 43.5994 74.5796 43.1875 74.5625 42.7244H75.8409C75.8722 43.0994 76.0384 43.4077 76.3395 43.6491C76.6406 43.8906 77.0014 44.0114 77.4219 44.0114C77.7571 44.0114 78.054 43.9347 78.3125 43.7812C78.5739 43.625 78.7784 43.4105 78.9262 43.1378C79.0767 42.8651 79.152 42.554 79.152 42.2045C79.152 41.8494 79.0753 41.5327 78.9219 41.2543C78.7685 40.9759 78.5568 40.7571 78.2869 40.598C78.0199 40.4389 77.7131 40.358 77.3665 40.3551C77.1023 40.3551 76.8367 40.4006 76.5696 40.4915C76.3026 40.5824 76.0867 40.7017 75.9219 40.8494L74.7159 40.6705L75.206 36.2727H80.0043V37.402H76.3012L76.0242 39.8438H76.0753C76.2458 39.679 76.4716 39.5412 76.7529 39.4304C77.0369 39.3196 77.3409 39.2642 77.6648 39.2642C78.196 39.2642 78.6691 39.3906 79.0838 39.6435C79.5014 39.8963 79.8296 40.2415 80.0682 40.679C80.3097 41.1136 80.429 41.6136 80.4262 42.179C80.429 42.7443 80.3012 43.2486 80.0426 43.6918C79.7869 44.1349 79.4318 44.4844 78.9773 44.7401C78.5256 44.9929 78.0071 45.1193 77.4219 45.1193ZM96.0695 45.1193C95.6803 45.1136 95.2968 45.0426 94.9189 44.9062C94.5439 44.7699 94.203 44.5426 93.8962 44.2244C93.5894 43.9062 93.3436 43.4787 93.159 42.9418C92.9772 42.4048 92.8862 41.7344 92.8862 40.9304C92.8862 40.169 92.9615 39.4929 93.1121 38.902C93.2655 38.3111 93.4857 37.8125 93.7726 37.4062C94.0595 36.9972 94.4061 36.6861 94.8124 36.473C95.2186 36.2599 95.6746 36.1534 96.1803 36.1534C96.7002 36.1534 97.1618 36.2557 97.5652 36.4602C97.9686 36.6648 98.2953 36.9474 98.5453 37.3082C98.7982 37.669 98.9587 38.0795 99.0269 38.5398H97.7272C97.6391 38.1761 97.4644 37.8793 97.203 37.6491C96.9416 37.419 96.6007 37.304 96.1803 37.304C95.5411 37.304 95.0425 37.5824 94.6845 38.1392C94.3294 38.696 94.1505 39.4702 94.1476 40.4616H94.2115C94.3621 40.2145 94.5468 40.0043 94.7655 39.831C94.9871 39.6548 95.2343 39.5199 95.507 39.4261C95.7826 39.3295 96.0723 39.2812 96.3763 39.2812C96.882 39.2812 97.3394 39.4048 97.7485 39.652C98.1604 39.8963 98.4885 40.2344 98.7328 40.6662C98.9772 41.098 99.0993 41.5923 99.0993 42.1491C99.0993 42.706 98.9729 43.2102 98.7201 43.6619C98.4701 44.1136 98.1178 44.4716 97.6632 44.7358C97.2087 44.9972 96.6774 45.125 96.0695 45.1193ZM96.0652 44.0114C96.4005 44.0114 96.7002 43.929 96.9644 43.7642C97.2286 43.5994 97.4374 43.3778 97.5908 43.0994C97.7442 42.821 97.8209 42.5099 97.8209 42.1662C97.8209 41.831 97.7456 41.5256 97.5951 41.25C97.4473 40.9744 97.2428 40.7557 96.9814 40.5938C96.7229 40.4318 96.4274 40.3509 96.0951 40.3509C95.8422 40.3509 95.6078 40.3991 95.3919 40.4957C95.1789 40.5923 94.9914 40.7259 94.8294 40.8963C94.6675 41.0668 94.5397 41.2628 94.4459 41.4844C94.355 41.7031 94.3095 41.9347 94.3095 42.179C94.3095 42.5057 94.3848 42.8082 94.5354 43.0866C94.6888 43.3651 94.8976 43.5895 95.1618 43.7599C95.4289 43.9276 95.73 44.0114 96.0652 44.0114ZM111.986 45L115.795 37.4659V37.402H111.389V36.2727H117.159V37.4403L113.362 45H111.986ZM132.454 45.1193C131.843 45.1193 131.303 45.0142 130.835 44.804C130.369 44.5937 130.004 44.304 129.739 43.9347C129.475 43.5653 129.344 43.1449 129.347 42.6733C129.344 42.304 129.42 41.9645 129.573 41.6548C129.729 41.3423 129.941 41.0824 130.208 40.875C130.475 40.6648 130.773 40.5312 131.103 40.4744V40.4233C130.668 40.3182 130.32 40.0852 130.059 39.7244C129.798 39.3636 129.668 38.9489 129.671 38.4801C129.668 38.0341 129.786 37.6364 130.025 37.2869C130.266 36.9347 130.597 36.6577 131.018 36.456C131.438 36.2543 131.917 36.1534 132.454 36.1534C132.985 36.1534 133.46 36.2557 133.877 36.4602C134.298 36.6619 134.629 36.9389 134.87 37.2912C135.111 37.6406 135.234 38.0369 135.236 38.4801C135.234 38.9489 135.1 39.3636 134.836 39.7244C134.572 40.0852 134.228 40.3182 133.805 40.4233V40.4744C134.131 40.5312 134.425 40.6648 134.687 40.875C134.951 41.0824 135.161 41.3423 135.317 41.6548C135.477 41.9645 135.558 42.304 135.56 42.6733C135.558 43.1449 135.424 43.5653 135.16 43.9347C134.896 44.304 134.529 44.5937 134.06 44.804C133.594 45.0142 133.059 45.1193 132.454 45.1193ZM132.454 44.0412C132.815 44.0412 133.127 43.9815 133.391 43.8622C133.656 43.7401 133.86 43.571 134.005 43.3551C134.15 43.1364 134.224 42.8807 134.227 42.5881C134.224 42.2841 134.144 42.0156 133.988 41.7827C133.835 41.5497 133.626 41.3665 133.361 41.233C133.097 41.0994 132.795 41.0327 132.454 41.0327C132.11 41.0327 131.805 41.0994 131.538 41.233C131.271 41.3665 131.06 41.5497 130.907 41.7827C130.754 42.0156 130.678 42.2841 130.681 42.5881C130.678 42.8807 130.748 43.1364 130.89 43.3551C131.035 43.571 131.241 43.7401 131.508 43.8622C131.775 43.9815 132.09 44.0412 132.454 44.0412ZM132.454 39.9801C132.744 39.9801 133.001 39.9219 133.225 39.8054C133.45 39.6889 133.626 39.527 133.754 39.3196C133.884 39.1122 133.951 38.8693 133.954 38.5909C133.951 38.3182 133.886 38.0795 133.758 37.875C133.633 37.6705 133.458 37.5128 133.234 37.402C133.009 37.2884 132.749 37.2315 132.454 37.2315C132.153 37.2315 131.888 37.2884 131.661 37.402C131.437 37.5128 131.262 37.6705 131.137 37.875C131.012 38.0795 130.951 38.3182 130.954 38.5909C130.951 38.8693 131.013 39.1122 131.141 39.3196C131.269 39.527 131.445 39.6889 131.67 39.8054C131.897 39.9219 132.158 39.9801 132.454 39.9801ZM151.029 36.1534C151.418 36.1562 151.802 36.2273 152.18 36.3665C152.557 36.5057 152.898 36.733 153.202 37.0483C153.509 37.3636 153.753 37.7898 153.935 38.3267C154.12 38.8608 154.214 39.5256 154.216 40.321C154.216 41.0852 154.14 41.7656 153.986 42.3622C153.833 42.956 153.613 43.4574 153.326 43.8665C153.042 44.2756 152.697 44.5866 152.29 44.7997C151.884 45.0128 151.427 45.1193 150.918 45.1193C150.398 45.1193 149.937 45.017 149.533 44.8125C149.13 44.608 148.802 44.3253 148.549 43.9645C148.296 43.6009 148.138 43.1832 148.076 42.7116H149.376C149.461 43.0866 149.634 43.3906 149.895 43.6236C150.16 43.8537 150.501 43.9688 150.918 43.9688C151.557 43.9688 152.056 43.6903 152.414 43.1335C152.772 42.5739 152.952 41.7926 152.955 40.7898H152.887C152.739 41.0341 152.555 41.2443 152.333 41.4205C152.114 41.5966 151.868 41.733 151.596 41.8295C151.323 41.9261 151.032 41.9744 150.722 41.9744C150.219 41.9744 149.762 41.8509 149.35 41.6037C148.938 41.3565 148.61 41.017 148.366 40.5852C148.121 40.1534 147.999 39.6605 147.999 39.1065C147.999 38.5554 148.124 38.0554 148.374 37.6065C148.627 37.1577 148.979 36.8026 149.431 36.5412C149.886 36.277 150.418 36.1477 151.029 36.1534ZM151.033 37.2614C150.701 37.2614 150.401 37.3437 150.134 37.5085C149.87 37.6705 149.661 37.8906 149.508 38.169C149.354 38.4446 149.278 38.7514 149.278 39.0895C149.278 39.4276 149.351 39.7344 149.499 40.0099C149.65 40.2827 149.854 40.5 150.113 40.6619C150.374 40.821 150.672 40.9006 151.008 40.9006C151.258 40.9006 151.491 40.8523 151.707 40.7557C151.922 40.6591 152.111 40.5256 152.273 40.3551C152.435 40.1818 152.562 39.9858 152.653 39.767C152.743 39.5483 152.789 39.3182 152.789 39.0767C152.789 38.7557 152.712 38.4574 152.559 38.1818C152.408 37.9062 152.201 37.6847 151.937 37.517C151.672 37.3466 151.371 37.2614 151.033 37.2614ZM169.834 45.1449C169.161 45.142 168.586 44.9645 168.108 44.6122C167.631 44.2599 167.266 43.7472 167.013 43.0739C166.76 42.4006 166.634 41.5895 166.634 40.6406C166.634 39.6946 166.76 38.8864 167.013 38.2159C167.269 37.5455 167.635 37.0341 168.113 36.6818C168.593 36.3295 169.167 36.1534 169.834 36.1534C170.502 36.1534 171.074 36.331 171.552 36.6861C172.029 37.0384 172.394 37.5497 172.647 38.2202C172.902 38.8878 173.03 39.6946 173.03 40.6406C173.03 41.5923 172.904 42.4048 172.651 43.0781C172.398 43.7486 172.033 44.2614 171.556 44.6165C171.079 44.9688 170.505 45.1449 169.834 45.1449ZM169.834 44.0071C170.425 44.0071 170.887 43.7188 171.219 43.142C171.554 42.5653 171.722 41.7315 171.722 40.6406C171.722 39.9162 171.645 39.304 171.492 38.804C171.341 38.3011 171.124 37.9205 170.84 37.6619C170.559 37.4006 170.223 37.2699 169.834 37.2699C169.246 37.2699 168.785 37.5597 168.449 38.1392C168.114 38.7187 167.945 39.5526 167.942 40.6406C167.942 41.3679 168.017 41.983 168.168 42.4858C168.321 42.9858 168.539 43.3651 168.82 43.6236C169.101 43.8793 169.439 44.0071 169.834 44.0071ZM188.463 45.1193C187.929 45.1193 187.448 45.017 187.022 44.8125C186.599 44.6051 186.261 44.321 186.008 43.9602C185.755 43.5994 185.62 43.1875 185.603 42.7244H186.882C186.913 43.0994 187.079 43.4077 187.38 43.6491C187.681 43.8906 188.042 44.0114 188.463 44.0114C188.798 44.0114 189.095 43.9347 189.353 43.7812C189.615 43.625 189.819 43.4105 189.967 43.1378C190.117 42.8651 190.193 42.554 190.193 42.2045C190.193 41.8494 190.116 41.5327 189.963 41.2543C189.809 40.9759 189.598 40.7571 189.328 40.598C189.061 40.4389 188.754 40.358 188.407 40.3551C188.143 40.3551 187.877 40.4006 187.61 40.4915C187.343 40.5824 187.127 40.7017 186.963 40.8494L185.757 40.6705L186.247 36.2727H191.045V37.402H187.342L187.065 39.8438H187.116C187.287 39.679 187.512 39.5412 187.794 39.4304C188.078 39.3196 188.382 39.2642 188.706 39.2642C189.237 39.2642 189.71 39.3906 190.125 39.6435C190.542 39.8963 190.87 40.2415 191.109 40.679C191.35 41.1136 191.47 41.6136 191.467 42.179C191.47 42.7443 191.342 43.2486 191.083 43.6918C190.828 44.1349 190.473 44.4844 190.018 44.7401C189.566 44.9929 189.048 45.1193 188.463 45.1193ZM203.88 43.2955V42.2301L207.651 36.2727H208.491V37.8409H207.958L205.261 42.1108V42.179H210.43V43.2955H203.88ZM208.018 45V42.9716L208.026 42.4858V36.2727H209.275V45H208.018Z" fill="black"/>
</svg>
