<svg width="24" height="24" viewBox="0 0 24 24" fill="none" xmlns="http://www.w3.org/2000/svg">
<g clip-path="url(#clip0_826_35559)">
<path d="M21.5028 4H19.3361V5.33333H21.3361V20H2.66944V5.33333H4.66944V4H2.50278C2.34693 4.0026 2.19313 4.03588 2.05015 4.09794C1.90718 4.15999 1.77782 4.24961 1.66948 4.36166C1.56114 4.47371 1.47594 4.60601 1.41874 4.751C1.36154 4.89599 1.33346 5.05083 1.33611 5.20667V20.1267C1.33346 20.2825 1.36154 20.4373 1.41874 20.5823C1.47594 20.7273 1.56114 20.8596 1.66948 20.9717C1.77782 21.0837 1.90718 21.1733 2.05015 21.2354C2.19313 21.2974 2.34693 21.3307 2.50278 21.3333H21.5028C21.6586 21.3307 21.8124 21.2974 21.9554 21.2354C22.0984 21.1733 22.2277 21.0837 22.3361 20.9717C22.4444 20.8596 22.5296 20.7273 22.5868 20.5823C22.644 20.4373 22.6721 20.2825 22.6694 20.1267V5.20667C22.6721 5.05083 22.644 4.89599 22.5868 4.751C22.5296 4.60601 22.4444 4.47371 22.3361 4.36166C22.2277 4.24961 22.0984 4.15999 21.9554 4.09794C21.8124 4.03588 21.6586 4.0026 21.5028 4Z" fill="#808080"/>
<path d="M5.33594 9.33337H6.66927V10.6667H5.33594V9.33337Z" fill="#808080"/>
<path d="M9.33594 9.33337H10.6693V10.6667H9.33594V9.33337Z" fill="#808080"/>
<path d="M13.3359 9.33337H14.6693V10.6667H13.3359V9.33337Z" fill="#808080"/>
<path d="M17.3359 9.33337H18.6693V10.6667H17.3359V9.33337Z" fill="#808080"/>
<path d="M5.33594 12.6666H6.66927V14H5.33594V12.6666Z" fill="#808080"/>
<path d="M9.33594 12.6666H10.6693V14H9.33594V12.6666Z" fill="#808080"/>
<path d="M13.3359 12.6666H14.6693V14H13.3359V12.6666Z" fill="#808080"/>
<path d="M17.3359 12.6666H18.6693V14H17.3359V12.6666Z" fill="#808080"/>
<path d="M5.33594 16H6.66927V17.3333H5.33594V16Z" fill="#808080"/>
<path d="M9.33594 16H10.6693V17.3333H9.33594V16Z" fill="#808080"/>
<path d="M13.3359 16H14.6693V17.3333H13.3359V16Z" fill="#808080"/>
<path d="M17.3359 16H18.6693V17.3333H17.3359V16Z" fill="#808080"/>
<path d="M6.66667 6.66671C6.84348 6.66671 7.01305 6.59647 7.13807 6.47145C7.2631 6.34642 7.33333 6.17685 7.33333 6.00004V2.00004C7.33333 1.82323 7.2631 1.65366 7.13807 1.52864C7.01305 1.40361 6.84348 1.33337 6.66667 1.33337C6.48986 1.33337 6.32029 1.40361 6.19526 1.52864C6.07024 1.65366 6 1.82323 6 2.00004V6.00004C6 6.17685 6.07024 6.34642 6.19526 6.47145C6.32029 6.59647 6.48986 6.66671 6.66667 6.66671Z" fill="#808080"/>
<path d="M17.3307 6.66671C17.5075 6.66671 17.6771 6.59647 17.8021 6.47145C17.9272 6.34642 17.9974 6.17685 17.9974 6.00004V2.00004C17.9974 1.82323 17.9272 1.65366 17.8021 1.52864C17.6771 1.40361 17.5075 1.33337 17.3307 1.33337C17.1539 1.33337 16.9843 1.40361 16.8593 1.52864C16.7343 1.65366 16.6641 1.82323 16.6641 2.00004V6.00004C16.6641 6.17685 16.7343 6.34642 16.8593 6.47145C16.9843 6.59647 17.1539 6.66671 17.3307 6.66671Z" fill="#808080"/>
<path d="M8.66406 4H15.3307V5.33333H8.66406V4Z" fill="#808080"/>
</g>
<defs>
<clipPath id="clip0_826_35559">
<rect width="24" height="24" fill="white"/>
</clipPath>
</defs>
</svg>
