<svg width="20" height="20" viewBox="0 0 20 20" fill="none" xmlns="http://www.w3.org/2000/svg">
<g clip-path="url(#clip0_202_2923)">
<path d="M2 6C2 3.79086 3.79086 2 6 2H14C16.2091 2 18 3.79086 18 6V14C18 16.2091 16.2091 18 14 18H6C3.79086 18 2 16.2091 2 14V6Z" fill="white"/>
</g>
<path d="M6 2.5H14C15.933 2.5 17.5 4.067 17.5 6V14C17.5 15.933 15.933 17.5 14 17.5H6C4.067 17.5 2.5 15.933 2.5 14V6C2.5 4.067 4.067 2.5 6 2.5Z" stroke="#757575" stroke-linecap="round"/>
<defs>
<clipPath id="clip0_202_2923">
<path d="M2 6C2 3.79086 3.79086 2 6 2H14C16.2091 2 18 3.79086 18 6V14C18 16.2091 16.2091 18 14 18H6C3.79086 18 2 16.2091 2 14V6Z" fill="white"/>
</clipPath>
</defs>
</svg>
