<svg width="17" height="16" viewBox="0 0 17 16" fill="none" xmlns="http://www.w3.org/2000/svg">
<path d="M14.5 3.30908V6.12158C14.5 6.2459 14.4473 6.36513 14.3536 6.45304C14.2598 6.54094 14.1326 6.59033 14 6.59033H11C10.8674 6.59033 10.7402 6.54094 10.6464 6.45304C10.5527 6.36513 10.5 6.2459 10.5 6.12158C10.5 5.99726 10.5527 5.87803 10.6464 5.79012C10.7402 5.70222 10.8674 5.65283 11 5.65283H12.7931L11.8787 4.7956C10.9495 3.92045 9.6878 3.42671 8.37063 3.42275H8.3425C7.03636 3.41988 5.78151 3.89916 4.84937 4.75693C4.75389 4.8405 4.62731 4.88571 4.49672 4.88291C4.36612 4.8801 4.24189 4.82949 4.15059 4.7419C4.05929 4.65432 4.00817 4.53672 4.00818 4.41425C4.00819 4.29179 4.05932 4.17419 4.15062 4.08662C5.28033 3.0515 6.79988 2.47581 8.37952 2.48447C9.95916 2.49314 11.4714 3.08546 12.5881 4.13291L13.5 4.99013V3.30908C13.5 3.18476 13.5527 3.06553 13.6464 2.97762C13.7402 2.88972 13.8674 2.84033 14 2.84033C14.1326 2.84033 14.2598 2.88972 14.3536 2.97762C14.4473 3.06553 14.5 3.18476 14.5 3.30908ZM12.1506 11.2362C11.2093 12.0983 9.94337 12.5777 8.62747 12.5704C7.31156 12.5632 6.05175 12.0699 5.12125 11.1976L4.20688 10.3403H6C6.13261 10.3403 6.25979 10.2909 6.35355 10.203C6.44732 10.1151 6.5 9.9959 6.5 9.87158C6.5 9.74726 6.44732 9.62803 6.35355 9.54012C6.25979 9.45221 6.13261 9.40283 6 9.40283H3C2.86739 9.40283 2.74021 9.45221 2.64645 9.54012C2.55268 9.62803 2.5 9.74726 2.5 9.87158V12.6841C2.5 12.8084 2.55268 12.9276 2.64645 13.0155C2.74021 13.1034 2.86739 13.1528 3 13.1528C3.13261 13.1528 3.25979 13.1034 3.35355 13.0155C3.44732 12.9276 3.5 12.8084 3.5 12.6841V11.003L4.41438 11.8603C5.52951 12.911 7.044 13.5036 8.625 13.5079H8.65812C10.2257 13.5117 11.7317 12.9364 12.85 11.9065C12.9413 11.819 12.9924 11.7014 12.9924 11.5789C12.9925 11.4564 12.9413 11.3388 12.85 11.2513C12.7587 11.1637 12.6345 11.1131 12.5039 11.1103C12.3733 11.1074 12.2467 11.1527 12.1512 11.2362H12.1506Z" fill="#454545"/>
</svg>
