<svg width="20" height="21" viewBox="0 0 20 21" fill="none" xmlns="http://www.w3.org/2000/svg">
<path d="M17.5 4.24804V7.99804C17.5 8.1638 17.4342 8.32277 17.3169 8.43999C17.1997 8.5572 17.0408 8.62304 16.875 8.62304H13.125C12.9592 8.62304 12.8003 8.5572 12.6831 8.43999C12.5658 8.32277 12.5 8.1638 12.5 7.99804C12.5 7.83228 12.5658 7.67331 12.6831 7.5561C12.8003 7.43889 12.9592 7.37304 13.125 7.37304H15.3664L14.2234 6.23007C13.0619 5.0632 11.4847 4.40488 9.83828 4.39961H9.80313C8.17045 4.39578 6.60189 5.03482 5.43672 6.17851C5.31736 6.28993 5.15914 6.35022 4.99589 6.34648C4.83265 6.34273 4.67736 6.27525 4.56323 6.15848C4.44911 6.0417 4.38522 5.88489 4.38523 5.72161C4.38524 5.55833 4.44914 5.40153 4.56328 5.28476C5.97541 3.9046 7.87486 3.13701 9.8494 3.14857C11.8239 3.16012 13.7143 3.94989 15.1102 5.34648L16.25 6.48945V4.24804C16.25 4.08228 16.3158 3.92331 16.4331 3.8061C16.5503 3.68889 16.7092 3.62304 16.875 3.62304C17.0408 3.62304 17.1997 3.68889 17.3169 3.8061C17.4342 3.92331 17.5 4.08228 17.5 4.24804ZM14.5633 14.8176C13.3866 15.967 11.8042 16.6062 10.1593 16.5965C8.51445 16.5869 6.93968 15.9291 5.77656 14.766L4.63359 13.623H6.875C7.04076 13.623 7.19973 13.5572 7.31694 13.44C7.43415 13.3228 7.5 13.1638 7.5 12.998C7.5 12.8323 7.43415 12.6733 7.31694 12.5561C7.19973 12.4389 7.04076 12.373 6.875 12.373H3.125C2.95924 12.373 2.80027 12.4389 2.68306 12.5561C2.56585 12.6733 2.5 12.8323 2.5 12.998V16.748C2.5 16.9138 2.56585 17.0728 2.68306 17.19C2.80027 17.3072 2.95924 17.373 3.125 17.373C3.29076 17.373 3.44973 17.3072 3.56694 17.19C3.68415 17.0728 3.75 16.9138 3.75 16.748V14.5066L4.89297 15.6496C6.28688 17.0505 8.18 17.8407 10.1562 17.8465H10.1977C12.1571 17.8515 14.0396 17.0844 15.4375 15.7113C15.5516 15.5946 15.6155 15.4378 15.6156 15.2745C15.6156 15.1112 15.5517 14.9544 15.4375 14.8376C15.3234 14.7208 15.1681 14.6534 15.0049 14.6496C14.8416 14.6459 14.6834 14.7062 14.5641 14.8176H14.5633Z" fill="#008080"/>
</svg>
