<svg width="20" height="20" viewBox="0 0 20 20" fill="none" xmlns="http://www.w3.org/2000/svg">
<g clip-path="url(#clip0_826_49965)">
<path d="M10.786 9.99997L15.3916 5.39441C15.4826 5.28813 15.5302 5.15142 15.5248 5.0116C15.5194 4.87178 15.4614 4.73915 15.3625 4.64021C15.2635 4.54127 15.1309 4.48331 14.9911 4.47791C14.8512 4.4725 14.7145 4.52006 14.6083 4.61108L10.0027 9.21663L5.39714 4.60552C5.29253 4.50091 5.15064 4.44214 5.0027 4.44214C4.85475 4.44214 4.71287 4.50091 4.60825 4.60552C4.50364 4.71014 4.44487 4.85202 4.44487 4.99997C4.44487 5.14791 4.50364 5.2898 4.60825 5.39441L9.21936 9.99997L4.60825 14.6055C4.5501 14.6553 4.50286 14.7166 4.46952 14.7855C4.43617 14.8545 4.41743 14.9295 4.41448 15.006C4.41152 15.0826 4.42441 15.1589 4.45234 15.2301C4.48027 15.3014 4.52264 15.3662 4.57678 15.4203C4.63092 15.4745 4.69567 15.5168 4.76696 15.5448C4.83825 15.5727 4.91455 15.5856 4.99106 15.5826C5.06757 15.5797 5.14265 15.5609 5.21157 15.5276C5.28049 15.4942 5.34178 15.447 5.39159 15.3889L10.0027 10.7833L14.6083 15.3889C14.7145 15.4799 14.8512 15.5274 14.9911 15.522C15.1309 15.5166 15.2635 15.4587 15.3625 15.3597C15.4614 15.2608 15.5194 15.1282 15.5248 14.9883C15.5302 14.8485 15.4826 14.7118 15.3916 14.6055L10.786 9.99997Z" fill="black"/>
</g>
<defs>
<clipPath id="clip0_826_49965">
<rect width="20" height="20" fill="white"/>
</clipPath>
</defs>
</svg>
