<svg width="20" height="20" viewBox="0 0 20 20" fill="none" xmlns="http://www.w3.org/2000/svg">
<path d="M18.4688 5.5195L10.1719 3.14919C10.0874 3.12497 9.99874 3.11885 9.91172 3.13122L1.69844 4.30466C1.40106 4.3484 1.12922 4.49731 0.93226 4.72437C0.735303 4.95143 0.626287 5.24158 0.625 5.54216V14.4578C0.626287 14.7584 0.735303 15.0485 0.93226 15.2756C1.12922 15.5026 1.40106 15.6515 1.69844 15.6953L9.91172 16.8672C9.94094 16.8717 9.97043 16.8743 10 16.875C10.0581 16.8749 10.116 16.8668 10.1719 16.8508L18.4688 14.4804C18.729 14.4051 18.9578 14.2476 19.1212 14.0314C19.2845 13.8153 19.3736 13.5521 19.375 13.2812V6.71872C19.3736 6.44781 19.2845 6.18464 19.1212 5.9685C18.9578 5.75236 18.729 5.59485 18.4688 5.5195ZM7.5 9.37497H6.25V4.91716L9.375 4.47028V15.5297L6.25 15.0828V10.625H7.5C7.66576 10.625 7.82473 10.5591 7.94194 10.4419C8.05915 10.3247 8.125 10.1657 8.125 9.99997C8.125 9.83421 8.05915 9.67524 7.94194 9.55803C7.82473 9.44082 7.66576 9.37497 7.5 9.37497ZM1.875 5.54216L5 5.09528V9.37497H3.75C3.58424 9.37497 3.42527 9.44082 3.30806 9.55803C3.19085 9.67524 3.125 9.83421 3.125 9.99997C3.125 10.1657 3.19085 10.3247 3.30806 10.4419C3.42527 10.5591 3.58424 10.625 3.75 10.625H5V14.9047L1.875 14.4578V5.54216ZM10.625 15.4211V4.57888L18.125 6.71872V13.2812L10.625 15.4211Z" fill="#fff
"/>
</svg>
