<svg width="25" height="24" viewBox="0 0 25 24" fill="none" xmlns="http://www.w3.org/2000/svg">
<path d="M19.8766 6.975L14.6266 1.725C14.4766 1.575 14.3266 1.5 14.1016 1.5H6.60156C5.77656 1.5 5.10156 2.175 5.10156 3V21C5.10156 21.825 5.77656 22.5 6.60156 22.5H18.6016C19.4266 22.5 20.1016 21.825 20.1016 21V7.5C20.1016 7.275 20.0266 7.125 19.8766 6.975ZM14.1016 3.3L18.3016 7.5H14.1016V3.3ZM18.6016 21H6.60156V3H12.6016V7.5C12.6016 8.325 13.2766 9 14.1016 9H18.6016V21Z" fill="#008080"/>
<path d="M8.10156 16.5H17.1016V18H8.10156V16.5ZM8.10156 12H17.1016V13.5H8.10156V12Z" fill="#008080"/>
</svg>
