<svg width="24" height="24" viewBox="0 0 24 24" fill="none" xmlns="http://www.w3.org/2000/svg">
<path d="M4 18.75V19.25H4.5H19.5H20V18.75V13.5C20 13.4337 20.0263 13.3701 20.0732 13.3232C20.1201 13.2763 20.1837 13.25 20.25 13.25C20.3163 13.25 20.3799 13.2763 20.4268 13.3232C20.4737 13.3701 20.5 13.4337 20.5 13.5V19.5C20.5 19.5663 20.4737 19.6299 20.4268 19.6768C20.3799 19.7237 20.3163 19.75 20.25 19.75H3.75C3.6837 19.75 3.62011 19.7237 3.57322 19.6768C3.52634 19.6299 3.5 19.5663 3.5 19.5V13.5C3.5 13.4337 3.52634 13.3701 3.57322 13.3232C3.62011 13.2763 3.6837 13.25 3.75 13.25C3.8163 13.25 3.87989 13.2763 3.92678 13.3232C3.97366 13.3701 4 13.4337 4 13.5V18.75ZM11.8231 13.6773L11.8229 13.6771L8.07293 9.92707C8.02597 9.88011 7.99958 9.81642 7.99958 9.75C7.99958 9.68358 8.02597 9.61989 8.07293 9.57293C8.11989 9.52597 8.18358 9.49958 8.25 9.49958C8.31638 9.49958 8.38005 9.52594 8.427 9.57286C8.42703 9.57288 8.42705 9.57291 8.42707 9.57293L10.8964 12.0432L11.75 12.8971V11.6897V3C11.75 2.9337 11.7763 2.87011 11.8232 2.82322C11.8701 2.77634 11.9337 2.75 12 2.75C12.0663 2.75 12.1299 2.77634 12.1768 2.82322C12.2237 2.87011 12.25 2.93369 12.25 3V11.6897V12.8971L13.1036 12.0432L15.5729 9.57293C15.5962 9.54967 15.6238 9.53123 15.6542 9.51864C15.6846 9.50606 15.7171 9.49958 15.75 9.49958C15.7829 9.49958 15.8154 9.50606 15.8458 9.51864C15.8762 9.53123 15.9038 9.54967 15.9271 9.57293C15.9503 9.59618 15.9688 9.62379 15.9814 9.65417C15.9939 9.68455 16.0004 9.71712 16.0004 9.75C16.0004 9.78288 15.9939 9.81545 15.9814 9.84583C15.9688 9.87621 15.9503 9.90382 15.9271 9.92707L12.1771 13.6771L12.1769 13.6773C12.1537 13.7005 12.1261 13.719 12.0957 13.7315C12.0654 13.7441 12.0329 13.7506 12 13.7506C11.9671 13.7506 11.9346 13.7441 11.9043 13.7315C11.8739 13.719 11.8463 13.7005 11.8231 13.6773Z" fill="black" stroke="#008080"/>
</svg>
