<svg width="16" height="17" viewBox="0 0 16 17" fill="none" xmlns="http://www.w3.org/2000/svg">
<path d="M14.1693 8.49862H5.9326M3.02527 8.49862H1.83594M3.02527 8.49862C3.02527 8.11318 3.17839 7.74352 3.45094 7.47096C3.7235 7.19841 4.09316 7.04529 4.4786 7.04529C4.86405 7.04529 5.23371 7.19841 5.50627 7.47096C5.77882 7.74352 5.93194 8.11318 5.93194 8.49862C5.93194 8.88407 5.77882 9.25373 5.50627 9.52629C5.23371 9.79884 4.86405 9.95196 4.4786 9.95196C4.09316 9.95196 3.7235 9.79884 3.45094 9.52629C3.17839 9.25373 3.02527 8.88407 3.02527 8.49862ZM14.1693 12.9033H10.3373M10.3373 12.9033C10.3373 13.2888 10.1838 13.6589 9.91117 13.9315C9.63855 14.2041 9.26881 14.3573 8.88327 14.3573C8.49782 14.3573 8.12816 14.2035 7.85561 13.931C7.58306 13.6584 7.42994 13.2887 7.42994 12.9033M10.3373 12.9033C10.3373 12.5178 10.1838 12.1483 9.91117 11.8757C9.63855 11.6031 9.26881 11.45 8.88327 11.45C8.49782 11.45 8.12816 11.6031 7.85561 11.8756C7.58306 12.1482 7.42994 12.5178 7.42994 12.9033M7.42994 12.9033H1.83594M14.1693 4.09396H12.0993M9.19194 4.09396H1.83594M9.19194 4.09396C9.19194 3.70851 9.34506 3.33885 9.61761 3.0663C9.89016 2.79374 10.2598 2.64063 10.6453 2.64063C10.8361 2.64062 11.0251 2.67822 11.2014 2.75125C11.3778 2.82429 11.538 2.93134 11.6729 3.0663C11.8079 3.20125 11.9149 3.36147 11.988 3.53779C12.061 3.71412 12.0986 3.9031 12.0986 4.09396C12.0986 4.28481 12.061 4.4738 11.988 4.65013C11.9149 4.82645 11.8079 4.98667 11.6729 5.12162C11.538 5.25657 11.3778 5.36363 11.2014 5.43666C11.0251 5.5097 10.8361 5.54729 10.6453 5.54729C10.2598 5.54729 9.89016 5.39417 9.61761 5.12162C9.34506 4.84907 9.19194 4.47941 9.19194 4.09396Z" stroke="#FF0000" stroke-miterlimit="10" stroke-linecap="round"/>
</svg>
