<svg width="41" height="41" viewBox="0 0 41 41" fill="none" xmlns="http://www.w3.org/2000/svg">
<path d="M20.0581 24.4647C20.6039 24.4647 21.1274 24.6816 21.5134 25.0675C21.8994 25.4535 22.1162 25.977 22.1162 26.5228C22.1162 27.0687 21.8994 27.5922 21.5134 27.9781C21.1274 28.3641 20.6039 28.5809 20.0581 28.5809C19.5123 28.5809 18.9888 28.3641 18.6028 27.9781C18.2168 27.5922 18 27.0687 18 26.5228C18 25.977 18.2168 25.4535 18.6028 25.0675C18.9888 24.6816 19.5123 24.4647 20.0581 24.4647ZM20.0581 16.2324C20.6039 16.2324 21.1274 16.4492 21.5134 16.8352C21.8994 17.2211 22.1162 17.7446 22.1162 18.2905C22.1162 18.8363 21.8994 19.3598 21.5134 19.7458C21.1274 20.1317 20.6039 20.3486 20.0581 20.3486C19.5123 20.3486 18.9888 20.1317 18.6028 19.7458C18.2168 19.3598 18 18.8363 18 18.2905C18 17.7446 18.2168 17.2211 18.6028 16.8352C18.9888 16.4492 19.5123 16.2324 20.0581 16.2324ZM20.0581 8C20.6039 8 21.1274 8.21683 21.5134 8.6028C21.8994 8.98877 22.1162 9.51225 22.1162 10.0581C22.1162 10.6039 21.8994 11.1274 21.5134 11.5134C21.1274 11.8994 20.6039 12.1162 20.0581 12.1162C19.5123 12.1162 18.9888 11.8994 18.6028 11.5134C18.2168 11.1274 18 10.6039 18 10.0581C18 9.51225 18.2168 8.98877 18.6028 8.6028C18.9888 8.21683 19.5123 8 20.0581 8Z" fill="#3E3F3F"/>
</svg>
