<svg width="40" height="40" viewBox="0 0 40 40" fill="none" xmlns="http://www.w3.org/2000/svg">
<rect width="40" height="40" rx="20" fill="#F2F2F2"/>
<g clip-path="url(#clip0_197_4841)">
<path d="M19.9999 19.3333C20.9229 19.3333 21.8252 19.0596 22.5926 18.5469C23.36 18.0341 23.9581 17.3052 24.3114 16.4525C24.6646 15.5998 24.757 14.6615 24.5769 13.7562C24.3969 12.851 23.9524 12.0195 23.2998 11.3668C22.6471 10.7142 21.8156 10.2697 20.9103 10.0897C20.0051 9.90961 19.0668 10.002 18.2141 10.3552C17.3613 10.7084 16.6325 11.3066 16.1197 12.074C15.6069 12.8414 15.3333 13.7437 15.3333 14.6667C15.3333 15.9043 15.8249 17.0913 16.7001 17.9665C17.5753 18.8417 18.7622 19.3333 19.9999 19.3333ZM19.9999 11.3333C20.6592 11.3333 21.3037 11.5288 21.8518 11.8951C22.4 12.2614 22.8272 12.782 23.0795 13.3911C23.3318 14.0001 23.3978 14.6704 23.2692 15.317C23.1406 15.9636 22.8231 16.5575 22.3569 17.0237C21.8908 17.4899 21.2968 17.8073 20.6502 17.936C20.0036 18.0646 19.3334 17.9986 18.7243 17.7463C18.1152 17.494 17.5946 17.0667 17.2284 16.5186C16.8621 15.9704 16.6666 15.3259 16.6666 14.6667C16.6666 13.7826 17.0178 12.9348 17.6429 12.3096C18.268 11.6845 19.1159 11.3333 19.9999 11.3333Z" fill="#848484"/>
<path d="M28.3133 24.2475C27.2441 23.1175 25.9558 22.2174 24.5269 21.6023C23.0981 20.9872 21.5589 20.6699 20.0033 20.6699C18.4476 20.6699 16.9084 20.9872 15.4796 21.6023C14.0507 22.2174 12.7624 23.1175 11.6933 24.2475C11.4615 24.4951 11.3327 24.8217 11.3333 25.1608V28.6675C11.3333 29.0211 11.4737 29.3603 11.7238 29.6103C11.9738 29.8604 12.313 30.0008 12.6666 30.0008H27.3333C27.6869 30.0008 28.026 29.8604 28.2761 29.6103C28.5261 29.3603 28.6666 29.0211 28.6666 28.6675V25.1608C28.6689 24.8226 28.5426 24.4961 28.3133 24.2475ZM27.3333 28.6675H12.6666V25.1542C13.6114 24.1593 14.7488 23.3671 16.0095 22.8257C17.2702 22.2843 18.6279 22.0052 19.9999 22.0052C21.372 22.0052 22.7296 22.2843 23.9903 22.8257C25.2511 23.3671 26.3884 24.1593 27.3333 25.1542V28.6675Z" fill="#848484"/>
</g>
<defs>
<clipPath id="clip0_197_4841">
<rect width="24" height="24" fill="white" transform="translate(8 8)"/>
</clipPath>
</defs>
</svg>
