<svg width="40" height="40" viewBox="0 0 40 40" fill="none" xmlns="http://www.w3.org/2000/svg">
<rect x="0.5" y="0.5" width="39" height="39" rx="19.5" stroke="#008080"/>
<path d="M28.0614 24.4944C27.5845 23.5981 26.8755 21.0622 26.8755 17.75C26.8755 15.7609 26.1511 13.8532 24.8618 12.4467C23.5725 11.0402 21.8238 10.25 20.0005 10.25C18.1771 10.25 16.4284 11.0402 15.1391 12.4467C13.8498 13.8532 13.1255 15.7609 13.1255 17.75C13.1255 21.0631 12.4156 23.5981 11.9387 24.4944C11.8169 24.7222 11.7523 24.9811 11.7515 25.2449C11.7506 25.5086 11.8136 25.768 11.9339 25.9967C12.0543 26.2255 12.2278 26.4156 12.437 26.5478C12.6462 26.6801 12.8837 26.7498 13.1255 26.75H16.6326C16.7912 27.5967 17.213 28.3577 17.8267 28.9042C18.4404 29.4507 19.2083 29.7492 20.0005 29.7492C20.7927 29.7492 21.5605 29.4507 22.1742 28.9042C22.7879 28.3577 23.2097 27.5967 23.3684 26.75H26.8755C27.1172 26.7496 27.3545 26.6798 27.5636 26.5475C27.7727 26.4151 27.9461 26.225 28.0663 25.9963C28.1866 25.7676 28.2495 25.5083 28.2486 25.2446C28.2477 24.9809 28.1832 24.7222 28.0614 24.4944ZM20.0005 28.25C19.5741 28.2499 19.1582 28.1055 18.8101 27.8369C18.4619 27.5683 18.1987 27.1886 18.0566 26.75H21.9444C21.8022 27.1886 21.539 27.5683 21.1909 27.8369C20.8428 28.1055 20.4269 28.2499 20.0005 28.25ZM13.1255 25.25C13.7872 24.0088 14.5005 21.1325 14.5005 17.75C14.5005 16.1587 15.0799 14.6326 16.1114 13.5074C17.1428 12.3821 18.5418 11.75 20.0005 11.75C21.4592 11.75 22.8581 12.3821 23.8896 13.5074C24.921 14.6326 25.5005 16.1587 25.5005 17.75C25.5005 21.1297 26.212 24.0059 26.8755 25.25H13.1255Z" fill="#008080"/>
</svg>
