<svg width="20" height="21" viewBox="0 0 20 21" fill="none" xmlns="http://www.w3.org/2000/svg">
<path d="M17.7586 6.23262L14.268 2.74122C14.1519 2.62511 14.0141 2.53301 13.8624 2.47018C13.7107 2.40734 13.5482 2.375 13.384 2.375C13.2198 2.375 13.0572 2.40734 12.9056 2.47018C12.7539 2.53301 12.6161 2.62511 12.5 2.74122L2.86641 12.3756C2.74983 12.4912 2.65741 12.6289 2.59451 12.7806C2.5316 12.9323 2.49948 13.095 2.50001 13.2592V16.7506C2.50001 17.0821 2.6317 17.4001 2.86612 17.6345C3.10054 17.8689 3.41849 18.0006 3.75001 18.0006H7.24141C7.40563 18.0011 7.5683 17.969 7.71999 17.9061C7.87168 17.8432 8.00935 17.7508 8.12501 17.6342L17.7586 8.00059C17.8747 7.88452 17.9668 7.7467 18.0296 7.59503C18.0925 7.44335 18.1248 7.28078 18.1248 7.11661C18.1248 6.95243 18.0925 6.78986 18.0296 6.63819C17.9668 6.48651 17.8747 6.3487 17.7586 6.23262ZM7.24141 16.7506H3.75001V13.2592L10.625 6.38419L14.1164 9.87559L7.24141 16.7506ZM15 8.99122L11.5086 5.50059L13.3836 3.62559L16.875 7.11622L15 8.99122Z" fill="#4F4F4F"/>
</svg>
