<svg width="21" height="20" viewBox="0 0 21 20" fill="none" xmlns="http://www.w3.org/2000/svg">
<path d="M10.4969 2.08594C11.477 2.08564 12.4314 2.39951 13.22 2.9815C14.0086 3.56348 14.5898 4.38292 14.8784 5.31954C15.1671 6.25616 15.1478 7.26064 14.8236 8.18553C14.4994 9.11043 13.8872 9.90704 13.0769 10.4584C14.4833 10.9743 15.7031 11.8992 16.5794 13.1142C17.4556 14.3292 17.9482 15.7786 17.9936 17.2759C17.9979 17.359 17.9855 17.4422 17.9572 17.5204C17.9289 17.5987 17.8852 17.6705 17.8288 17.7317C17.7724 17.7928 17.7043 17.8421 17.6285 17.8766C17.5528 17.9111 17.471 17.9301 17.3878 17.9326C17.3046 17.935 17.2218 17.9208 17.1441 17.8908C17.0665 17.8608 16.9957 17.8156 16.9357 17.7579C16.8758 17.7001 16.828 17.631 16.7952 17.5545C16.7623 17.4781 16.7451 17.3958 16.7444 17.3126C16.6948 15.6888 16.0149 14.1482 14.8488 13.0171C13.6826 11.8861 12.1219 11.2535 10.4974 11.2535C8.87282 11.2535 7.31211 11.8861 6.14597 13.0171C4.97983 14.1482 4.29991 15.6888 4.25028 17.3126C4.24531 17.4784 4.17469 17.6354 4.05397 17.7491C3.93324 17.8627 3.77229 17.9238 3.60653 17.9189C3.44077 17.9139 3.28378 17.8433 3.17008 17.7225C3.05639 17.6018 2.99531 17.4409 3.00028 17.2751C3.0459 15.7779 3.53853 14.3287 4.41475 13.1139C5.29097 11.899 6.5107 10.9742 7.91695 10.4584C7.10669 9.90704 6.49451 9.11043 6.17028 8.18553C5.84605 7.26064 5.82683 6.25616 6.11546 5.31954C6.40408 4.38292 6.98534 3.56348 7.77392 2.9815C8.5625 2.39951 9.51687 2.08564 10.4969 2.08594ZM7.16361 6.66927C7.16361 7.55333 7.5148 8.40117 8.13993 9.02629C8.76505 9.65142 9.61289 10.0026 10.4969 10.0026C11.381 10.0026 12.2288 9.65142 12.854 9.02629C13.4791 8.40117 13.8303 7.55333 13.8303 6.66927C13.8303 5.78522 13.4791 4.93737 12.854 4.31225C12.2288 3.68713 11.381 3.33594 10.4969 3.33594C9.61289 3.33594 8.76505 3.68713 8.13993 4.31225C7.5148 4.93737 7.16361 5.78522 7.16361 6.66927Z" fill="#454545"/>
</svg>
