<svg width="16" height="15" viewBox="0 0 16 15" fill="none" xmlns="http://www.w3.org/2000/svg">
<path d="M14.7077 4.76763L10.9146 1.21216C10.8217 1.12509 10.7115 1.05601 10.5902 1.00888C10.4688 0.961756 10.3388 0.9375 10.2074 0.9375C10.0761 0.9375 9.94602 0.961756 9.82468 1.00888C9.70334 1.05601 9.59309 1.12509 9.50023 1.21216L6.14836 4.36451C5.48211 4.1688 3.96086 3.93267 2.37336 5.13443C2.26393 5.21692 2.17427 5.32008 2.11019 5.43721C2.04612 5.55434 2.00907 5.6828 2.00147 5.81425C1.99386 5.94569 2.01587 6.07715 2.06605 6.20009C2.11623 6.32303 2.19347 6.43469 2.29273 6.52779L5.31273 9.35787L2.64648 11.8557C2.55266 11.9437 2.49995 12.063 2.49995 12.1874C2.49995 12.3117 2.55266 12.431 2.64648 12.519C2.7403 12.607 2.86755 12.6564 3.00023 12.6564C3.13291 12.6564 3.26016 12.607 3.35398 12.519L6.01836 10.0194L9.03648 12.8489C9.12927 12.9362 9.23951 13.0056 9.36092 13.0529C9.48232 13.1003 9.61249 13.1247 9.74398 13.1249H9.81461C9.95716 13.1156 10.0959 13.0777 10.2214 13.0137C10.347 12.9497 10.4563 12.8611 10.5421 12.754C11.7696 11.2247 11.6515 9.9813 11.3665 9.23834L14.7084 6.09361C14.8012 6.00651 14.8748 5.90312 14.925 5.78935C14.9753 5.67557 15.0011 5.55363 15.001 5.4305C15.001 5.30737 14.975 5.18545 14.9247 5.07171C14.8744 4.95798 14.8007 4.85465 14.7077 4.76763ZM14.0002 5.43091L10.4209 8.79771C10.3469 8.86727 10.2982 8.95683 10.2815 9.05376C10.2648 9.1507 10.2809 9.2501 10.3277 9.33794C10.919 10.4471 10.2152 11.5991 9.74398 12.1868L3.00023 5.86392C3.75523 5.29322 4.47773 5.14263 5.03023 5.14263C5.38082 5.13809 5.72851 5.20257 6.05086 5.33189C6.1449 5.37601 6.25139 5.39122 6.35519 5.37533C6.45898 5.35945 6.55479 5.31329 6.62898 5.24341L10.2077 1.87486L14.0002 5.43033V5.43091Z" fill="#454545"/>
</svg>
