<svg width="20" height="20" viewBox="0 0 20 20" fill="none" xmlns="http://www.w3.org/2000/svg">
<path d="M10.4178 13.1522C11.3976 12.542 12.1519 11.6292 12.5668 10.5521C12.9816 9.47496 13.0343 8.29202 12.717 7.18224C12.3996 6.07246 11.7295 5.09623 10.8079 4.40124C9.88633 3.70625 8.76347 3.33032 7.60921 3.33032C6.45495 3.33032 5.33209 3.70625 4.41051 4.40124C3.48893 5.09623 2.81878 6.07246 2.50143 7.18224C2.18409 8.29202 2.23682 9.47496 2.65166 10.5521C3.06649 11.6292 3.82085 12.542 4.80061 13.1522C3.18733 13.6803 1.73577 14.667 0.568583 16.0561C0.513895 16.1186 0.472224 16.1915 0.446005 16.2703C0.419786 16.3491 0.409546 16.4324 0.415884 16.5152C0.422221 16.598 0.445009 16.6788 0.482914 16.7527C0.520819 16.8266 0.573082 16.8923 0.636646 16.9457C0.70021 16.9992 0.7738 17.0395 0.853114 17.0642C0.932427 17.0889 1.01587 17.0976 1.09857 17.0897C1.18127 17.0818 1.26156 17.0575 1.33475 17.0182C1.40794 16.9789 1.47256 16.9254 1.52483 16.8608C3.09358 14.9889 5.25452 13.9584 7.6053 13.9584C9.95608 13.9584 12.117 14.9889 13.6889 16.8608C13.7956 16.9878 13.9484 17.0672 14.1137 17.0816C14.2789 17.0959 14.4431 17.0441 14.5701 16.9374C14.6972 16.8306 14.7766 16.6779 14.7909 16.5126C14.8053 16.3473 14.7534 16.1831 14.6467 16.0561C13.4787 14.667 12.0272 13.6803 10.4178 13.1522ZM3.5428 8.64595C3.5428 7.84246 3.78106 7.05702 4.22746 6.38894C4.67385 5.72087 5.30833 5.20017 6.05065 4.89269C6.79297 4.5852 7.60981 4.50475 8.39786 4.66151C9.1859 4.81826 9.90977 5.20517 10.4779 5.77333C11.0461 6.34148 11.433 7.06534 11.5897 7.85339C11.7465 8.64144 11.666 9.45827 11.3586 10.2006C11.0511 10.9429 10.5304 11.5774 9.86231 12.0238C9.19423 12.4702 8.40879 12.7084 7.6053 12.7084C6.52824 12.7072 5.49565 12.2788 4.73405 11.5172C3.97245 10.7556 3.54404 9.72301 3.5428 8.64595ZM18.8748 12.0108L18.5108 11.8006C18.5535 11.5745 18.5535 11.3424 18.5108 11.1163L18.8748 10.9061C18.9459 10.8651 19.0083 10.8104 19.0582 10.7453C19.1082 10.6802 19.1449 10.6059 19.1661 10.5266C19.1874 10.4473 19.1928 10.3646 19.1821 10.2832C19.1714 10.2018 19.1448 10.1233 19.1037 10.0522C19.0627 9.9811 19.0081 9.91878 18.9429 9.8688C18.8778 9.81882 18.8035 9.78215 18.7242 9.76089C18.6449 9.73964 18.5622 9.73421 18.4808 9.74491C18.3994 9.75562 18.3209 9.78225 18.2498 9.82329L17.885 10.0342C17.7104 9.8844 17.5096 9.76812 17.2928 9.69126V9.27095C17.2928 9.10519 17.227 8.94622 17.1097 8.82901C16.9925 8.71179 16.8336 8.64595 16.6678 8.64595C16.502 8.64595 16.3431 8.71179 16.2259 8.82901C16.1086 8.94622 16.0428 9.10519 16.0428 9.27095V9.69126C15.826 9.76812 15.6252 9.8844 15.4506 10.0342L15.0858 9.82329C15.0147 9.78225 14.9362 9.75562 14.8548 9.74491C14.7734 9.73421 14.6907 9.73964 14.6114 9.76089C14.5321 9.78215 14.4578 9.81882 14.3927 9.8688C14.3275 9.91878 14.2729 9.9811 14.2319 10.0522C14.1908 10.1233 14.1642 10.2018 14.1535 10.2832C14.1428 10.3646 14.1482 10.4473 14.1695 10.5266C14.1907 10.6059 14.2274 10.6802 14.2774 10.7453C14.3274 10.8104 14.3897 10.8651 14.4608 10.9061L14.8248 11.1163C14.7821 11.3424 14.7821 11.5745 14.8248 11.8006L14.4608 12.0108C14.3897 12.0518 14.3274 12.1065 14.2774 12.1716C14.2274 12.2367 14.1907 12.311 14.1695 12.3903C14.1482 12.4696 14.1428 12.5523 14.1535 12.6337C14.1642 12.7151 14.1908 12.7936 14.2319 12.8647C14.2729 12.9358 14.3275 12.9981 14.3927 13.0481C14.4578 13.0981 14.5321 13.1347 14.6114 13.156C14.6907 13.1773 14.7734 13.1827 14.8548 13.172C14.9362 13.1613 15.0147 13.1346 15.0858 13.0936L15.4506 12.8827C15.6252 13.0325 15.826 13.1488 16.0428 13.2256V13.6459C16.0428 13.8117 16.1086 13.9707 16.2259 14.0879C16.3431 14.2051 16.502 14.2709 16.6678 14.2709C16.8336 14.2709 16.9925 14.2051 17.1097 14.0879C17.227 13.9707 17.2928 13.8117 17.2928 13.6459V13.2256C17.5096 13.1488 17.7104 13.0325 17.885 12.8827L18.2498 13.0936C18.3447 13.1488 18.4526 13.1776 18.5623 13.1772C18.7 13.1772 18.8338 13.1319 18.943 13.0481C19.0522 12.9643 19.1307 12.8469 19.1663 12.7139C19.2019 12.581 19.1926 12.44 19.1399 12.3129C19.0872 12.1857 18.9941 12.0796 18.8748 12.0108ZM16.0428 11.4584C16.0428 11.3348 16.0795 11.214 16.1481 11.1112C16.2168 11.0084 16.3144 10.9283 16.4286 10.881C16.5428 10.8337 16.6685 10.8213 16.7897 10.8455C16.911 10.8696 17.0223 10.9291 17.1097 11.0165C17.1972 11.1039 17.2567 11.2153 17.2808 11.3365C17.3049 11.4578 17.2925 11.5834 17.2452 11.6976C17.1979 11.8118 17.1178 11.9094 17.015 11.9781C16.9123 12.0468 16.7914 12.0834 16.6678 12.0834C16.502 12.0834 16.3431 12.0176 16.2259 11.9004C16.1086 11.7832 16.0428 11.6242 16.0428 11.4584Z" fill="white"/>
</svg>
