<svg width="16" height="16" viewBox="0 0 16 16" fill="none" xmlns="http://www.w3.org/2000/svg">
<path d="M14.3538 6.92565L11.3538 9.73815C11.2599 9.82611 11.1327 9.87552 11 9.87552C10.8673 9.87552 10.7401 9.82611 10.6462 9.73815C10.5524 9.65019 10.4997 9.5309 10.4997 9.40651C10.4997 9.28212 10.5524 9.16283 10.6462 9.07487L12.7931 7.06276H8C6.54182 7.06431 5.14383 7.60806 4.11274 8.5747C3.08165 9.54135 2.50165 10.852 2.5 12.219C2.5 12.3433 2.44732 12.4626 2.35355 12.5505C2.25979 12.6384 2.13261 12.6878 2 12.6878C1.86739 12.6878 1.74021 12.6384 1.64645 12.5505C1.55268 12.4626 1.5 12.3433 1.5 12.219C1.50182 10.6034 2.18722 9.05439 3.40582 7.91196C4.62441 6.76953 6.27665 6.12697 8 6.12526H12.7931L10.6462 4.11315C10.5998 4.0696 10.5629 4.0179 10.5378 3.96099C10.5127 3.90409 10.4997 3.8431 10.4997 3.78151C10.4997 3.71992 10.5127 3.65893 10.5378 3.60203C10.5629 3.54512 10.5998 3.49342 10.6462 3.44987C10.7401 3.36191 10.8673 3.3125 11 3.3125C11.0657 3.3125 11.1308 3.32463 11.1914 3.3482C11.2521 3.37177 11.3073 3.40632 11.3538 3.44987L14.3538 6.26237C14.4002 6.3059 14.4371 6.3576 14.4623 6.41451C14.4874 6.47141 14.5004 6.53241 14.5004 6.59401C14.5004 6.65561 14.4874 6.71661 14.4623 6.77351C14.4371 6.83042 14.4002 6.88212 14.3538 6.92565Z" fill="#454545"/>
</svg>
