<svg width="20" height="20" viewBox="0 0 20 20" fill="none" xmlns="http://www.w3.org/2000/svg">
<path d="M18.0586 12.2207L16.7793 11.127C16.8398 10.7559 16.8711 10.377 16.8711 9.99805C16.8711 9.61914 16.8398 9.24023 16.7793 8.86914L18.0586 7.77539C18.1551 7.69279 18.2242 7.58277 18.2566 7.45996C18.289 7.33715 18.2833 7.20738 18.2402 7.08789L18.2227 7.03711C17.8705 6.05278 17.3431 5.14029 16.666 4.34375L16.6309 4.30273C16.5487 4.20616 16.4393 4.13673 16.3169 4.10361C16.1945 4.07049 16.065 4.07522 15.9453 4.11719L14.3574 4.68164C13.7715 4.20117 13.1172 3.82227 12.4102 3.55664L12.1035 1.89648C12.0804 1.77157 12.0198 1.65665 11.9298 1.56699C11.8398 1.47733 11.7246 1.41718 11.5996 1.39453L11.5469 1.38477C10.5293 1.20117 9.45899 1.20117 8.44141 1.38477L8.38868 1.39453C8.26367 1.41718 8.14851 1.47733 8.05851 1.56699C7.9685 1.65665 7.9079 1.77157 7.88477 1.89648L7.57618 3.56445C6.87479 3.83015 6.22163 4.20885 5.64258 4.68555L4.04297 4.11719C3.92337 4.07489 3.79374 4.06998 3.67128 4.10312C3.54883 4.13627 3.43936 4.20589 3.35743 4.30273L3.32227 4.34375C2.64599 5.14086 2.1187 6.05319 1.76563 7.03711L1.74805 7.08789C1.66016 7.33203 1.73243 7.60547 1.92969 7.77539L3.22461 8.88086C3.16407 9.24805 3.13477 9.62305 3.13477 9.99609C3.13477 10.3711 3.16407 10.7461 3.22461 11.1113L1.92969 12.2168C1.8332 12.2994 1.76414 12.4094 1.73169 12.5322C1.69925 12.655 1.70495 12.7848 1.74805 12.9043L1.76563 12.9551C2.11914 13.9395 2.64258 14.8477 3.32227 15.6484L3.35743 15.6895C3.43956 15.786 3.54904 15.8555 3.67141 15.8886C3.79379 15.9217 3.92334 15.917 4.04297 15.875L5.64258 15.3066C6.22461 15.7852 6.875 16.1641 7.57618 16.4277L7.88477 18.0957C7.9079 18.2206 7.9685 18.3355 8.05851 18.4252C8.14851 18.5149 8.26367 18.575 8.38868 18.5977L8.44141 18.6074C9.46834 18.792 10.52 18.792 11.5469 18.6074L11.5996 18.5977C11.7246 18.575 11.8398 18.5149 11.9298 18.4252C12.0198 18.3355 12.0804 18.2206 12.1035 18.0957L12.4102 16.4355C13.1169 16.1706 13.7749 15.7905 14.3574 15.3105L15.9453 15.875C16.0649 15.9173 16.1946 15.9222 16.317 15.8891C16.4395 15.8559 16.5489 15.7863 16.6309 15.6895L16.666 15.6484C17.3457 14.8457 17.8691 13.9395 18.2227 12.9551L18.2402 12.9043C18.3281 12.6641 18.2559 12.3906 18.0586 12.2207ZM15.3926 9.09961C15.4414 9.39453 15.4668 9.69727 15.4668 10C15.4668 10.3027 15.4414 10.6055 15.3926 10.9004L15.2637 11.6836L16.7227 12.9316C16.5015 13.4412 16.2223 13.9235 15.8906 14.3691L14.0781 13.7266L13.4648 14.2305C12.9981 14.6133 12.4785 14.9141 11.916 15.125L11.1719 15.4043L10.8223 17.2988C10.2706 17.3613 9.71373 17.3613 9.16211 17.2988L8.8125 15.4004L8.07422 15.1172C7.51758 14.9062 7 14.6055 6.53711 14.2246L5.92383 13.7188L4.09961 14.3672C3.76758 13.9199 3.49024 13.4375 3.26758 12.9297L4.74219 11.6699L4.61524 10.8887C4.56836 10.5977 4.54297 10.2969 4.54297 10C4.54297 9.70117 4.56641 9.40234 4.61524 9.11133L4.74219 8.33008L3.26758 7.07031C3.48829 6.56055 3.76758 6.08008 4.09961 5.63281L5.92383 6.28125L6.53711 5.77539C7 5.39453 7.51758 5.09375 8.07422 4.88281L8.81446 4.60352L9.16407 2.70508C9.71289 2.64258 10.2734 2.64258 10.8242 2.70508L11.1738 4.59961L11.918 4.87891C12.4785 5.08984 13 5.39062 13.4668 5.77344L14.0801 6.27734L15.8926 5.63477C16.2246 6.08203 16.502 6.56445 16.7246 7.07227L15.2656 8.32031L15.3926 9.09961ZM9.9961 6.36719C8.09766 6.36719 6.5586 7.90625 6.5586 9.80469C6.5586 11.7031 8.09766 13.2422 9.9961 13.2422C11.8945 13.2422 13.4336 11.7031 13.4336 9.80469C13.4336 7.90625 11.8945 6.36719 9.9961 6.36719ZM11.543 11.3516C11.3401 11.555 11.099 11.7164 10.8335 11.8263C10.568 11.9363 10.2834 11.9926 9.9961 11.9922C9.41211 11.9922 8.86329 11.7637 8.44922 11.3516C8.24575 11.1487 8.08441 10.9076 7.97446 10.6421C7.86452 10.3766 7.80815 10.092 7.8086 9.80469C7.8086 9.2207 8.03711 8.67187 8.44922 8.25781C8.86329 7.84375 9.41211 7.61719 9.9961 7.61719C10.5801 7.61719 11.1289 7.84375 11.543 8.25781C11.7464 8.4607 11.9078 8.70181 12.0177 8.96729C12.1277 9.23276 12.184 9.51735 12.1836 9.80469C12.1836 10.3887 11.9551 10.9375 11.543 11.3516Z" fill="#333333"/>
</svg>
