<svg width="20" height="21" viewBox="0 0 20 21" fill="none" xmlns="http://www.w3.org/2000/svg">
<path d="M9.84375 10.5C9.84375 10.6243 9.79436 10.7435 9.70646 10.8315C9.61855 10.9194 9.49932 10.9688 9.375 10.9688H3.75C3.62568 10.9688 3.50645 10.9194 3.41854 10.8315C3.33064 10.7435 3.28125 10.6243 3.28125 10.5C3.28125 10.3757 3.33064 10.2565 3.41854 10.1685C3.50645 10.0806 3.62568 10.0312 3.75 10.0312H9.375C9.49932 10.0312 9.61855 10.0806 9.70646 10.1685C9.79436 10.2565 9.84375 10.3757 9.84375 10.5ZM3.75 5.96875H14.375C14.4993 5.96875 14.6185 5.91936 14.7065 5.83146C14.7944 5.74355 14.8437 5.62432 14.8437 5.5C14.8437 5.37568 14.7944 5.25645 14.7065 5.16854C14.6185 5.08064 14.4993 5.03125 14.375 5.03125H3.75C3.62568 5.03125 3.50645 5.08064 3.41854 5.16854C3.33064 5.25645 3.28125 5.37568 3.28125 5.5C3.28125 5.62432 3.33064 5.74355 3.41854 5.83146C3.50645 5.91936 3.62568 5.96875 3.75 5.96875ZM8.125 15.0312H3.75C3.62568 15.0312 3.50645 15.0806 3.41854 15.1685C3.33064 15.2565 3.28125 15.3757 3.28125 15.5C3.28125 15.6243 3.33064 15.7435 3.41854 15.8315C3.50645 15.9194 3.62568 15.9688 3.75 15.9688H8.125C8.24932 15.9688 8.36855 15.9194 8.45646 15.8315C8.54436 15.7435 8.59375 15.6243 8.59375 15.5C8.59375 15.3757 8.54436 15.2565 8.45646 15.1685C8.36855 15.0806 8.24932 15.0312 8.125 15.0312ZM17.8312 13.2937C17.7434 13.206 17.6242 13.1567 17.5 13.1567C17.3758 13.1567 17.2566 13.206 17.1687 13.2937L14.8437 15.618V9.25C14.8437 9.12568 14.7944 9.00645 14.7065 8.91854C14.6185 8.83064 14.4993 8.78125 14.375 8.78125C14.2507 8.78125 14.1314 8.83064 14.0435 8.91854C13.9556 9.00645 13.9062 9.12568 13.9062 9.25V15.618L11.5812 13.2937C11.4924 13.2109 11.3749 13.1659 11.2534 13.168C11.132 13.1702 11.0161 13.2194 10.9302 13.3052C10.8444 13.3911 10.7952 13.507 10.793 13.6284C10.7909 13.7499 10.8359 13.8674 10.9187 13.9563L14.0437 17.0813C14.1316 17.169 14.2508 17.2183 14.375 17.2183C14.4992 17.2183 14.6184 17.169 14.7062 17.0813L17.8312 13.9563C17.919 13.8684 17.9683 13.7492 17.9683 13.625C17.9683 13.5008 17.919 13.3816 17.8312 13.2937Z" fill="#333333"/>
</svg>
