<svg width="25" height="24" viewBox="0 0 25 24" fill="none" xmlns="http://www.w3.org/2000/svg">
<path d="M5.79688 12.0009C5.79688 13.8449 6.41354 15.4283 7.64688 16.7509C8.88021 18.0736 10.4102 18.8136 12.2369 18.9709C12.3755 18.9909 12.4939 19.0496 12.5919 19.1469C12.6899 19.2443 12.7389 19.3623 12.7389 19.5009C12.7389 19.6436 12.6822 19.7616 12.5689 19.8549C12.4555 19.9483 12.3192 19.9849 12.1599 19.9649C10.0772 19.7969 8.32921 18.9536 6.91588 17.4349C5.50254 15.9163 4.79621 14.1049 4.79688 12.0009C4.79688 9.92695 5.48954 8.12728 6.87488 6.60195C8.26021 5.07661 9.98821 4.22161 12.0589 4.03695C12.2342 4.01695 12.3882 4.04961 12.5209 4.13495C12.6535 4.21961 12.7199 4.34161 12.7199 4.50095C12.7199 4.63961 12.6742 4.75761 12.5829 4.85495C12.4909 4.95228 12.3759 5.01128 12.2379 5.03195C10.4105 5.18861 8.88021 5.92828 7.64688 7.25095C6.41354 8.57361 5.79688 10.1569 5.79688 12.0009ZM19.1839 12.5009H10.7969C10.6549 12.5009 10.5359 12.4533 10.4399 12.3579C10.3439 12.2626 10.2962 12.1436 10.2969 12.0009C10.2975 11.8583 10.3452 11.7393 10.4399 11.6439C10.5345 11.5486 10.6535 11.5009 10.7969 11.5009H19.1639L16.4439 8.76095C16.3459 8.66361 16.2969 8.54761 16.2969 8.41295C16.2969 8.27828 16.3455 8.16261 16.4429 8.06595C16.5402 7.96928 16.6582 7.92095 16.7969 7.92095C16.9355 7.92095 17.0535 7.96995 17.1509 8.06795L20.5199 11.4359C20.6819 11.5979 20.7629 11.7866 20.7629 12.0019C20.7629 12.2173 20.6819 12.4059 20.5199 12.5679L17.1499 15.9359C17.0532 16.0339 16.9355 16.0819 16.7969 16.0799C16.6582 16.0779 16.5402 16.0279 16.4429 15.9299C16.3455 15.8333 16.2969 15.7156 16.2969 15.5769C16.2969 15.4383 16.3455 15.3203 16.4429 15.2229L19.1839 12.5009Z" fill="#008080"/>
</svg>
