<svg width="21" height="21" viewBox="0 0 21 21" fill="none" xmlns="http://www.w3.org/2000/svg">
<path d="M10.5 3.625C9.01664 3.625 7.5666 4.06487 6.33323 4.88898C5.09986 5.71309 4.13856 6.88443 3.57091 8.25487C3.00325 9.62532 2.85472 11.1333 3.14411 12.5882C3.4335 14.043 4.14781 15.3794 5.1967 16.4283C6.2456 17.4772 7.58197 18.1915 9.03683 18.4809C10.4917 18.7703 11.9997 18.6218 13.3701 18.0541C14.7406 17.4864 15.9119 16.5251 16.736 15.2918C17.5601 14.0584 18 12.6084 18 11.125C17.9977 9.13657 17.2068 7.23024 15.8008 5.82421C14.3948 4.41818 12.4884 3.62727 10.5 3.625ZM10.5 17.375C9.26387 17.375 8.0555 17.0084 7.02769 16.3217C5.99988 15.6349 5.1988 14.6588 4.72576 13.5168C4.25271 12.3747 4.12894 11.1181 4.3701 9.90569C4.61125 8.69331 5.20651 7.57966 6.08059 6.70558C6.95466 5.8315 8.06831 5.23625 9.28069 4.99509C10.4931 4.75393 11.7497 4.87771 12.8918 5.35075C14.0338 5.8238 15.0099 6.62488 15.6967 7.65269C16.3834 8.68049 16.75 9.88887 16.75 11.125C16.7481 12.782 16.0891 14.3707 14.9174 15.5424C13.7457 16.7141 12.157 17.3731 10.5 17.375ZM14.0672 7.55781C14.1253 7.61586 14.1714 7.68479 14.2029 7.76066C14.2343 7.83654 14.2505 7.91787 14.2505 8C14.2505 8.08214 14.2343 8.16346 14.2029 8.23934C14.1714 8.31521 14.1253 8.38414 14.0672 8.44219L10.9422 11.5672C10.8841 11.6253 10.8152 11.6713 10.7393 11.7027C10.6634 11.7342 10.5821 11.7503 10.5 11.7503C10.4179 11.7503 10.3366 11.7342 10.2607 11.7027C10.1848 11.6713 10.1159 11.6253 10.0578 11.5672C9.99975 11.5091 9.95368 11.4402 9.92226 11.3643C9.89083 11.2884 9.87466 11.2071 9.87466 11.125C9.87466 11.0429 9.89083 10.9616 9.92226 10.8857C9.95368 10.8098 9.99975 10.7409 10.0578 10.6828L13.1828 7.55781C13.2409 7.4997 13.3098 7.4536 13.3857 7.42215C13.4615 7.3907 13.5429 7.37451 13.625 7.37451C13.7071 7.37451 13.7885 7.3907 13.8643 7.42215C13.9402 7.4536 14.0091 7.4997 14.0672 7.55781ZM8 1.75C8 1.58424 8.06585 1.42527 8.18306 1.30806C8.30027 1.19085 8.45924 1.125 8.625 1.125H12.375C12.5408 1.125 12.6997 1.19085 12.8169 1.30806C12.9342 1.42527 13 1.58424 13 1.75C13 1.91576 12.9342 2.07473 12.8169 2.19194C12.6997 2.30915 12.5408 2.375 12.375 2.375H8.625C8.45924 2.375 8.30027 2.30915 8.18306 2.19194C8.06585 2.07473 8 1.91576 8 1.75Z" fill="#454545"/>
</svg>
