<svg width="48" height="40" viewBox="0 0 48 40" fill="none" xmlns="http://www.w3.org/2000/svg">
<path d="M11.232 33.3307C10.3107 33.3307 9.542 33.0741 8.926 32.5607C8.31 32.0474 8.00133 31.4063 8 30.6374V9.35741C8 8.58963 8.30867 7.94907 8.926 7.43574C9.54333 6.92241 10.312 6.66519 11.232 6.66407H24.746C25.1753 6.66407 25.502 6.8163 25.726 7.12074C25.95 7.42519 25.9813 7.74852 25.82 8.09074C25.6533 8.53518 25.5133 8.98296 25.4 9.43407C25.2867 9.88519 25.2307 10.3507 25.232 10.8307C25.232 13.083 26.184 15.003 28.088 16.5907C29.992 18.1785 32.296 18.9724 35 18.9724C35.576 18.9724 36.1347 18.9252 36.676 18.8307C37.2173 18.7363 37.7547 18.6196 38.288 18.4807C38.724 18.3507 39.1187 18.3769 39.472 18.5591C39.824 18.7402 40 19.0124 40 19.3757V30.6391C40 31.4057 39.692 32.0463 39.076 32.5607C38.46 33.0752 37.6907 33.3319 36.768 33.3307H11.232ZM13.538 27.3041H34.462L28 20.1257L22 26.4407L18 22.4341L13.538 27.3041ZM35 14.9974C34.7173 14.9974 34.48 14.9174 34.288 14.7574C34.096 14.5974 34 14.3996 34 14.1641V11.6641H31C30.716 11.6641 30.4787 11.5841 30.288 11.4241C30.0973 11.2641 30.0013 11.0657 30 10.8291C29.9987 10.5924 30.0947 10.3946 30.288 10.2357C30.4813 10.0769 30.7187 9.99741 31 9.99741H34V7.49741C34 7.26074 34.096 7.06296 34.288 6.90407C34.48 6.74519 34.718 6.66519 35.002 6.66407C35.286 6.66296 35.5233 6.74296 35.714 6.90407C35.9047 7.06519 36 7.26296 36 7.49741V9.99741H39C39.284 9.99741 39.5213 10.0774 39.712 10.2374C39.9027 10.3974 39.9987 10.5957 40 10.8324C40.0013 11.0691 39.9053 11.2669 39.712 11.4257C39.5187 11.5846 39.2813 11.6641 39 11.6641H36V14.1641C36 14.4007 35.904 14.5985 35.712 14.7574C35.52 14.9163 35.284 14.9963 35 14.9974Z" fill="#B0B0B0"/>
</svg>
