<svg width="20" height="20" viewBox="0 0 20 20" fill="none" xmlns="http://www.w3.org/2000/svg">
<path d="M18.75 14.3751H18.125V4.52349L18.8805 4.36099C18.9625 4.34562 19.0405 4.31398 19.1101 4.26795C19.1797 4.22192 19.2394 4.16242 19.2856 4.09297C19.3318 4.02352 19.3636 3.94552 19.3792 3.86357C19.3948 3.78162 19.3939 3.69737 19.3764 3.6158C19.3589 3.53423 19.3253 3.45698 19.2775 3.38861C19.2297 3.32023 19.1687 3.26212 19.0981 3.2177C19.0275 3.17327 18.9487 3.14343 18.8664 3.12994C18.784 3.11644 18.6999 3.11956 18.6188 3.13912L1.11875 6.88912C0.967988 6.92165 0.834578 7.00878 0.744183 7.13375C0.653788 7.25871 0.612791 7.41269 0.629078 7.56606C0.645365 7.71943 0.717786 7.86136 0.83241 7.96455C0.947035 8.06775 1.09577 8.12491 1.25 8.12506C1.29438 8.12507 1.33865 8.12036 1.38203 8.11099L1.875 8.00553V14.3751H1.25C1.08424 14.3751 0.925268 14.4409 0.808058 14.5581C0.690848 14.6753 0.625 14.8343 0.625 15.0001C0.625 15.1658 0.690848 15.3248 0.808058 15.442C0.925268 15.5592 1.08424 15.6251 1.25 15.6251H18.75C18.9158 15.6251 19.0747 15.5592 19.1919 15.442C19.3092 15.3248 19.375 15.1658 19.375 15.0001C19.375 14.8343 19.3092 14.6753 19.1919 14.5581C19.0747 14.4409 18.9158 14.3751 18.75 14.3751ZM3.125 7.73443L16.875 4.79146V14.3751H15V10.0001C15 9.8343 14.9342 9.67533 14.8169 9.55812C14.6997 9.44091 14.5408 9.37506 14.375 9.37506H5.625C5.45924 9.37506 5.30027 9.44091 5.18306 9.55812C5.06585 9.67533 5 9.8343 5 10.0001V14.3751H3.125V7.73443ZM13.75 11.8751H6.25V10.6251H13.75V11.8751ZM6.25 13.1251H13.75V14.3751H6.25V13.1251Z" fill="#fff"/>
</svg>
